<?xml version="1.0" encoding="utf-8"?>
<!-- Generator: Adobe Illustrator 24.1.2, SVG Export Plug-In . SVG Version: 6.00 Build 0)  -->
<svg version="1.1" id="Layer_1" xmlns="http://www.w3.org/2000/svg" xmlns:xlink="http://www.w3.org/1999/xlink" x="0px" y="0px"
	 viewBox="0 0 1000 199.2" style="enable-background:new 0 0 1000 199.2;" xml:space="preserve">
<style type="text/css">
	.st0{fill:#3E53A4;}
	.st1{fill:#5087A3;}
	.st2{fill:#5CAF94;}
	.st3{fill:#231F20;}
</style>
<g>
	<g>
		<path class="st0" d="M177.3,176.1V19.8C93.6,25.5,26.7,92.4,21,176.1H177.3z"/>
		<path class="st1" d="M298.9,64c-27.3-25.2-63-41.5-102.5-44.2v146.7L298.9,64z"/>
		<path class="st2" d="M210.6,175.6l136.9-0.4c1.1-40.6-12.5-65.6-35.6-95.3L210.6,175.6z"/>
	</g>
	<g>
		<path class="st3" d="M421.2,36.7v49h-7.7v-49h-15.8v-6.5h39.7l-0.8,6.5H421.2z"/>
		<path class="st3" d="M474.3,64.5c0,13.1-6.9,22.2-18.9,22.2c-12.1,0-18.9-8.7-18.9-22.2c0-13.1,6.9-22.2,19-22.2
			C467.5,42.3,474.3,51,474.3,64.5z M444.4,64.6c0,11,3.9,16.2,11,16.2c7.1,0,11-5.2,11-16.3c0-11-3.9-16.2-10.9-16.2
			C448.3,48.3,444.4,53.4,444.4,64.6z"/>
		<path class="st3" d="M521.7,64.5c0,13.3-6.4,22.2-16.7,22.2c-4.7,0-8.4-2.1-11.3-5.6l-0.7,4.7h-6.5V26.2l7.4-0.9v23.3
			c2.9-3.9,6.9-6.3,12-6.3C515.5,42.3,521.7,50.3,521.7,64.5z M513.8,64.5c0-12.1-3.9-16.3-9.9-16.3c-4.7,0-7.7,3.2-9.9,6.6v20.3
			c2.2,3.4,5.6,5.7,9.3,5.7C509.5,80.8,513.8,76.1,513.8,64.5z"/>
		<path class="st3" d="M566.5,81.6l-1.7,5.2c-4.3-0.5-7-2.2-8.3-6.4c-3,4.4-7.5,6.4-12.7,6.4c-8.5,0-13.5-5.2-13.5-12.8
			c0-9.1,6.9-14,18.7-14h6.5v-3.1c0-6.1-3-8.4-8.9-8.4c-3.1,0-7.1,0.8-11.4,2.3l-1.9-5.4c5.2-1.9,9.9-2.9,14.7-2.9
			c10.2,0,14.9,5.2,14.9,14.1v19.4C563,79.5,564.4,80.8,566.5,81.6z M555.6,74.5v-9.8H550c-7.8,0-11.8,2.9-11.8,8.7
			c0,5,2.5,7.7,7.3,7.7C549.9,81.2,553.2,79,555.6,74.5z"/>
		<path class="st3" d="M606.7,46.9l-3.6,4.8c-2.8-2.3-5.5-3.3-9-3.3c-6.7,0-10.9,5.2-10.9,16.3c0,11.1,4.2,15.7,10.9,15.7
			c3.5,0,6-1.1,9.1-3.5l3.5,5.1c-3.8,3.1-8.1,4.7-13,4.7c-11.4,0-18.5-8.1-18.5-21.8c0-13.5,7-22.6,18.5-22.6
			C598.7,42.3,602.7,43.6,606.7,46.9z"/>
		<path class="st3" d="M644.4,46.9l-3.6,4.8c-2.8-2.3-5.5-3.3-9-3.3c-6.7,0-10.9,5.2-10.9,16.3c0,11.1,4.2,15.7,10.9,15.7
			c3.5,0,6-1.1,9.1-3.5l3.5,5.1c-3.8,3.1-8.1,4.7-13,4.7c-11.4,0-18.5-8.1-18.5-21.8c0-13.5,7-22.6,18.5-22.6
			C636.4,42.3,640.4,43.6,644.4,46.9z"/>
		<path class="st3" d="M688.5,64.5c0,13.1-6.9,22.2-18.9,22.2c-12.1,0-18.9-8.7-18.9-22.2c0-13.1,6.9-22.2,19-22.2
			C681.7,42.3,688.5,51,688.5,64.5z M658.6,64.6c0,11,3.9,16.2,11,16.2c7.1,0,11-5.2,11-16.3c0-11-3.9-16.2-10.9-16.2
			C662.5,48.3,658.6,53.4,658.6,64.6z"/>
		<path class="st3" d="M757.3,34.7l-4.2,4.9c-3.5-2.8-6.9-4.1-10.7-4.1c-8.4,0-15.4,5.6-15.4,22.4c0,16,6.7,22.3,15.3,22.3
			c5.2,0,8.6-2.3,11.8-4.7l3.9,4.9c-3,3.1-8.4,6.2-15.9,6.2c-13.5,0-23.2-10.1-23.2-28.8c0-18.8,10.5-28.7,23.1-28.7
			C748.9,29.2,752.8,31.2,757.3,34.7z"/>
		<path class="st3" d="M801.2,64.5c0,13.1-6.9,22.2-18.9,22.2c-12.1,0-18.9-8.7-18.9-22.2c0-13.1,6.9-22.2,19-22.2
			C794.4,42.3,801.2,51,801.2,64.5z M771.3,64.6c0,11,3.9,16.2,11,16.2c7.1,0,11-5.2,11-16.3c0-11-3.9-16.2-10.9-16.2
			C775.2,48.3,771.3,53.4,771.3,64.6z"/>
		<path class="st3" d="M845.8,55.3v30.5h-7.4V56.3c0-6.4-2.6-8.2-6.7-8.2c-4.8,0-8,3-10.8,7.5v30.1h-7.4V43.3h6.4l0.6,6.3
			c2.9-4.4,7.4-7.3,13-7.3C841.2,42.3,845.8,47.2,845.8,55.3z"/>
		<path class="st3" d="M872.6,86.7c-7.2,0-11.4-4.2-11.4-12.1V49h-7.4v-5.7h7.4v-9.6l7.4-0.9v10.5h10.1l-0.8,5.7h-9.3v25.3
			c0,4.3,1.4,6.3,5.1,6.3c1.9,0,3.5-0.6,5.6-1.9l2.8,5.1C879.3,85.8,876.2,86.7,872.6,86.7z"/>
		<path class="st3" d="M912.4,42.8L911,50c-1.3-0.3-2.2-0.5-3.7-0.5c-5.3,0-8.4,3.8-10.2,11.9v24.3h-7.4V43.3h6.4l0.7,8.6
			c2.3-6.4,6.2-9.6,11.4-9.6C909.6,42.3,911.1,42.5,912.4,42.8z"/>
		<path class="st3" d="M954.9,64.5c0,13.1-6.9,22.2-18.9,22.2c-12.1,0-18.9-8.7-18.9-22.2c0-13.1,6.9-22.2,19-22.2
			C948.1,42.3,954.9,51,954.9,64.5z M925,64.6c0,11,3.9,16.2,11,16.2c7.1,0,11-5.2,11-16.3c0-11-3.9-16.2-10.9-16.2
			C928.9,48.3,925,53.4,925,64.6z"/>
		<path class="st3" d="M976.8,80.6c1,0,1.9-0.2,2.7-0.5l1.9,5.2c-2,1-4.1,1.5-6.3,1.5c-5.4,0-8.5-3.2-8.5-9.4V26.2l7.4-0.9v51.9
			C974.1,79.5,974.8,80.6,976.8,80.6z"/>
		<path class="st3" d="M444.1,147.2c0,22.6-14.1,28.1-26.1,28.1h-13.3v-55.5h11.6C430.4,119.8,444.1,124.2,444.1,147.2z
			 M412.3,169.2h6.2c8.7,0,17.4-3.7,17.4-22c0-18.8-9.1-21.4-18-21.4h-5.6V169.2z"/>
		<path class="st3" d="M487.5,171.1l-1.7,5.2c-4.3-0.5-7-2.2-8.3-6.4c-3,4.4-7.5,6.4-12.7,6.4c-8.5,0-13.5-5.2-13.5-12.8
			c0-9.1,6.9-14,18.7-14h6.5v-3.1c0-6.1-3-8.4-8.9-8.4c-3.1,0-7.1,0.8-11.4,2.3l-1.9-5.4c5.2-1.9,9.9-2.9,14.7-2.9
			c10.2,0,14.9,5.2,14.9,14.1v19.4C483.9,169.1,485.3,170.3,487.5,171.1z M476.5,164.1v-9.8H471c-7.8,0-11.8,2.9-11.8,8.7
			c0,5,2.5,7.7,7.3,7.7C470.9,170.7,474.1,168.5,476.5,164.1z"/>
		<path class="st3" d="M511.1,176.3c-7.2,0-11.4-4.2-11.4-12.1v-25.6h-7.4v-5.7h7.4v-9.6l7.4-0.9v10.5h10.1l-0.8,5.7h-9.3v25.3
			c0,4.3,1.4,6.3,5.1,6.3c1.9,0,3.5-0.6,5.6-1.9l2.8,5.1C517.8,175.3,514.7,176.3,511.1,176.3z"/>
		<path class="st3" d="M560.4,171.1l-1.7,5.2c-4.3-0.5-7-2.2-8.3-6.4c-3,4.4-7.5,6.4-12.7,6.4c-8.5,0-13.5-5.2-13.5-12.8
			c0-9.1,6.8-14,18.7-14h6.5v-3.1c0-6.1-3-8.4-8.9-8.4c-3.1,0-7.1,0.8-11.4,2.3l-1.9-5.4c5.2-1.9,9.9-2.9,14.7-2.9
			c10.2,0,14.9,5.2,14.9,14.1v19.4C556.9,169.1,558.2,170.3,560.4,171.1z M549.4,164.1v-9.8h-5.6c-7.8,0-11.8,2.9-11.8,8.7
			c0,5,2.5,7.7,7.3,7.7C543.8,170.7,547,168.5,549.4,164.1z"/>
		<path class="st3" d="M593.8,175.3v-55.5h7.7v55.5H593.8z"/>
		<path class="st3" d="M649.6,144.8v30.5h-7.4v-29.4c0-6.4-2.6-8.2-6.7-8.2c-4.8,0-8,3-10.8,7.5v30.1h-7.4v-42.5h6.4l0.6,6.3
			c2.9-4.4,7.4-7.3,13-7.3C645.1,131.8,649.6,136.8,649.6,144.8z"/>
		<path class="st3" d="M673.4,117.5c0,2.8-2.1,5-5.2,5c-3.1,0-5.2-2.2-5.2-5c0-2.9,2.1-5.1,5.2-5.1
			C671.3,112.4,673.4,114.6,673.4,117.5z M664.5,175.3v-42.5h7.4v42.5H664.5z"/>
		<path class="st3" d="M699.2,176.3c-7.2,0-11.4-4.2-11.4-12.1v-25.6h-7.4v-5.7h7.4v-9.6l7.4-0.9v10.5h10.1l-0.8,5.7h-9.3v25.3
			c0,4.3,1.4,6.3,5.1,6.3c1.9,0,3.5-0.6,5.6-1.9l2.8,5.1C705.9,175.3,702.8,176.3,699.2,176.3z"/>
		<path class="st3" d="M725.2,117.5c0,2.8-2.1,5-5.2,5c-3.1,0-5.2-2.2-5.2-5c0-2.9,2.1-5.1,5.2-5.1
			C723.1,112.4,725.2,114.6,725.2,117.5z M716.3,175.3v-42.5h7.4v42.5H716.3z"/>
		<path class="st3" d="M771.2,171.1l-1.7,5.2c-4.3-0.5-7-2.2-8.3-6.4c-3,4.4-7.5,6.4-12.7,6.4c-8.5,0-13.5-5.2-13.5-12.8
			c0-9.1,6.9-14,18.7-14h6.5v-3.1c0-6.1-3-8.4-8.9-8.4c-3.1,0-7.1,0.8-11.4,2.3l-1.9-5.4c5.2-1.9,9.9-2.9,14.7-2.9
			c10.2,0,14.9,5.2,14.9,14.1v19.4C767.7,169.1,769,170.3,771.2,171.1z M760.2,164.1v-9.8h-5.6c-7.8,0-11.8,2.9-11.8,8.7
			c0,5,2.5,7.7,7.3,7.7C754.6,170.7,757.8,168.5,760.2,164.1z"/>
		<path class="st3" d="M794.8,176.3c-7.2,0-11.4-4.2-11.4-12.1v-25.6H776v-5.7h7.4v-9.6l7.4-0.9v10.5h10.1l-0.8,5.7h-9.3v25.3
			c0,4.3,1.4,6.3,5.1,6.3c1.9,0,3.5-0.6,5.6-1.9l2.8,5.1C801.5,175.3,798.4,176.3,794.8,176.3z"/>
		<path class="st3" d="M820.8,117.5c0,2.8-2.1,5-5.2,5c-3.1,0-5.2-2.2-5.2-5c0-2.9,2.1-5.1,5.2-5.1
			C818.7,112.4,820.8,114.6,820.8,117.5z M812,175.3v-42.5h7.4v42.5H812z"/>
		<path class="st3" d="M842.5,175.3l-14.7-42.5h8.1l11.1,35.9l11-35.9h7.8l-14.4,42.5H842.5z"/>
		<path class="st3" d="M905.5,156.6h-27.1c0.7,9.8,5.3,13.6,11.4,13.6c4.2,0,7.3-1.1,11-3.7l3.2,4.4c-4.2,3.3-8.9,5.3-14.8,5.3
			c-11.9,0-18.8-8.3-18.8-21.8c0-13.2,6.7-22.6,17.7-22.6c11.4,0,17.5,8,17.5,21C905.6,154.3,905.5,155.6,905.5,156.6z M898.3,150.6
			c0-8.3-3.3-12.9-10-12.9c-5.6,0-9.3,3.9-9.9,13.4h19.9V150.6z"/>
	</g>
</g>
</svg>
